<?xml version="1.0" encoding="UTF-8"?><svg id="Layer_1" xmlns="http://www.w3.org/2000/svg" viewBox="0 0 600 600"><path d="M478.96,116.99h0c-30.61,0-55.97,22.51-60.42,51.88v-80.13c0-33.76-27.36-61.12-61.12-61.12h0c-33.76,0-61.12,27.36-61.12,61.12v93.35c0-33.76-27.36-61.12-61.12-61.12h0c-33.76,0-61.12,27.36-61.12,61.12v-66.54c0-33.76-27.36-61.12-61.12-61.12h0c-33.76,0-61.12,27.36-61.12,61.12v348.49c0,33.76,27.36,61.12,61.12,61.12h0c33.76,0,61.12-27.36,61.12-61.12,0,33.76,27.36,61.12,61.12,61.12h0c33.76,0,61.12-27.36,61.12-61.12v40c0,33.76,27.36,61.12,61.12,61.12h0c33.76,0,61.12-27.36,61.12-61.12v-80.75c4.46,29.37,29.81,51.88,60.42,51.88h0c33.76,0,61.12-27.36,61.12-61.12v-235.92c0-33.76-27.36-61.12-61.12-61.12Z"/></svg>