<?xml version="1.0" encoding="UTF-8"?><svg id="Layer_1" xmlns="http://www.w3.org/2000/svg" viewBox="0 0 600 600"><path d="M546.3,342.18c-.03-4.04-.45-8.22-.71-12.23-2.22-2.55-4.89-1.89-6.38-3.56-2.67-.14-5.28-2.82-7.84-5.68-.75-14.02.99-29.2-1.82-42.87-1.02-.81-3.53-8.31-3.74-11.53-2.3-12.43-4.22-25.6-8.66-37.35-2.64-7.34-7.25-13.24-8.23-21.26-2.35-9.54-3.11-24.31-8.45-32.02-6.1-1.1-6.88-1.17-7.92-3.74-2.4-6.42-6.7-15.19-12.71-20.16-11.22-6.55-17.91-17.5-28.15-24.8-21.93-14.26-45.35-27.35-69.49-37.13-22.47-6.75-50.51-6.72-77.56-10.5-62.9-4.68-131.51,20.56-174.37,65.97-19.57,21.55-29.82,45.74-41.48,72.71-3.66,8.72-7.96,15.94-9.44,24.91-1.34,5.76-4.02,9.42-4.71,14.87-.82,6.88-.5,14.65-2.52,21.49-.45-.53-.9-1.07-1.35-1.6-.47,3.1-1.59,9.23-1.89,12.34-.92,6.92-3.95-6.18-6.41,3.62-1.98,16.18-4.06,34.5.72,50.99-.4,3.5-.51,6.11.21,6.59,8.3,7.91,3.73,21.26,9.15,31.25,8.83,13.28,10.62,29.67,20.29,42.44,7.76,11.99,17.37,24.59,26.18,35.59,8.72,11.25,17.48,22.37,29.43,30.35,19.03,13.09,52.69,30.58,77.85,39.13,21.78,7.2,44.53,9.89,66.64,15.74,33.52-3.27,69.42-4.92,101.17-18.03,20.82-9.18,40.01-21.39,59.52-32.91,16.31-9.32,30.85-23.29,43.11-36.95,4.96-6.88,8.21-15.7,12.92-22.89.29,1.1.59,2.2.88,3.29,1.76-2.71,5.41-8,7.01-10.81,1.66-2.77,2-1.68,2.34-.59.69,2.18,1.34,4.42,5.05-.17,16.11-22.95,24.58-52.47,24.01-80.52-.99-.94-1.97-2-2.62-4Z"/></svg>