<?xml version="1.0" encoding="UTF-8"?><svg id="Layer_1" xmlns="http://www.w3.org/2000/svg" viewBox="0 0 600 600"><circle cx="116.18" cy="265.75" r="27.9"/><path d="M528.06,275.05c0-51.58-43.44-93.74-98.2-96.63-29.02-26.63-67.72-42.89-110.21-42.89-1.43,0-2.85.02-4.26.06-12.06-38.92-48.34-67.2-91.22-67.2-52.73,0-95.48,42.75-95.48,95.48,0,31.4,15.16,59.26,38.56,76.66-6.88,18.04-10.65,37.61-10.65,58.06,0,3.6.13,7.17.36,10.7-4.18-.72-8.48-1.11-12.87-1.11-41.74,0-75.58,33.84-75.58,75.58s33.84,75.58,75.58,75.58c28.7,0,53.67-16,66.46-39.57,1.78,1.6,3.59,3.17,5.43,4.69,2,54.11,46.46,97.36,101.06,97.36s96.66-40.97,100.8-93.04c22.79-17.21,40.92-40.26,52.15-66.93,34.41-15.81,58.07-48.74,58.07-86.81Z"/></svg>