<?xml version="1.0" encoding="UTF-8"?><svg id="Layer_1" xmlns="http://www.w3.org/2000/svg" viewBox="0 0 600 600"><path d="M95.94,482.31c-.67,2.53,1.68,7.7,3.33,9.7.66.78,1.8,2.08,2.36,1.09.78-1.76-3.46-13.74-5.66-10.89l-.04.09Z"/><path d="M101.81,493.91c.04-.1.04-.13-.04-.2.02.09.03.11.04.2Z"/><path d="M532.58,83.57c-.1-.12-2.33.46-1.7.67.37.2,1.55-.22,1.71-.61v-.07Z"/><path d="M206.12,519.92c4.22-4.14,2.51-6.35,9.03-3.13,3.02.98,6.08-2.83,9.03-1.01,7.2,4.44,5.24-6.79,10.33-4.17,10.26,11.83,27.78,15.16,45.18,15.74,4.26-.01,9.51.27,12.62-2.66,3.07-.91-1.43-20.71,4.64-13.39,2.94,3.81,2.94,10.59,7.1,12.91,1.27.16,1.97-1.59,3.6-2.38,6.1-.9,12.99-3.15,17.38-8.12,4.39-5.61,4.5-9.78,9.91-12.94,2.11-1.03,3.66-5.86,6-3.97,1.61,1.94,2.97,6.15,6.24,5.21,2.98-.34,6.15-9.14,9.1-6.14,1.18,2.19,2.65,5.8,4.68,6.61,5.39.49,9.72-11.22,13.7-14.6,8.7-10.16,24.48-20.04,26.9-34.59.88-2.82,2.72-20.3,2.81-7.83-.24,10.48-4.28,23.43,11.9,19.19,13.43-1.53,38.98-7.32,47.39,3.95,2.33,2.91,2.76,7.45,5.71,9.54,3.89,2.19,1.55-6.02,2.39-9.19.17-6.65.49-8.82,4.64-13.32,2.87-7.29,11-11.3,18.75-7.39,10.24,5.13,5.75,12.96,14.84-.92,23.62-36.31,19.24-281.73,20.89-354.5-4.82,4.49-.73-13.06-3.4-14.56-1.36-2.54-3.32-4.58-5.67-6.23-2.39-1.81-5.45-.51-7.93.59-5.93,2.82-11.55.03-17.41.57-8.16,2.27-13.91,5.48-22.61,7.81-16.49,2.2-39.86,8.47-54.98,10.86-9.46,1.49-17.83.81-27.5,2.49-24.3,4.92-50.26,11.56-72.74,9.65-10.01,5.86-7.15,15.42-25.17,18.44-16.95,3.96-36.26-3.36-52.96-6.68-10.03.39-18.78,6.47-29.41,4.88-8.67-.4-17.38-2.38-26.02-2.74-5.84-.18-9.32,1.63-13.04.7-9.09-4.5-8.03-3.62-11.28,6.32-4.18,12.12-15.06,23.51-28.68,20.03-4.81-.57-9.43-2.7-13.9-4.55-7.68-3.67-15.42-2.76-17.04-11.07-1.8-10.41-3.48-6.5-4.97,7.21-4.6,50.13-5.72,146.98-4.65,206.51,1.45,45.22,1.22,100.83,10.11,136.41,1.56,4.16.65,8.48.71,12.8-.03,4.69,4.69-2.25,10.14,6.45,11.53,15.95,37.1,18.31,55.6,21.12,7.25.4,12.04,5.24,19.29,5.34,6.34-.38,14.04-1.1,18.62-5.13l.1-.09Z"/></svg>