<?xml version="1.0" encoding="UTF-8"?><svg id="Layer_1" xmlns="http://www.w3.org/2000/svg" viewBox="0 0 600 600"><polygon points="294.25 284.76 83.66 163.18 294.25 41.6 300 38.28 516.34 163.18 305.75 284.76 300 288.09 294.25 284.76"/><path d="M300,38.86l5.5,3.17,209.84,121.15-209.84,121.14-5.5,3.18-5.5-3.18-209.84-121.14,209.84-121.15,5.5-3.17M300,37.7l-6,3.46-211.34,122.02,211.34,122.01,6,3.47,6-3.47,211.34-122.01-211.34-122.02-6-3.46h0Z"/><polygon points="82.92 427.56 77.17 424.24 77.17 174.44 293.5 299.34 293.5 549.14 82.92 427.56"/><path d="M77.67,175.31l209.83,121.15,5.5,3.17v248.64l-209.83-121.14-5.5-3.18v-248.64M76.67,173.57v250.95l6,3.47,211.33,122.01v-250.95l-6-3.46-211.33-122.02h0Z"/><polygon points="306.5 299.34 312.25 296.03 522.83 174.44 522.83 424.24 517.08 427.56 306.5 549.14 306.5 299.34"/><path d="M522.33,175.31v248.64l-5.5,3.18-209.83,121.14v-248.64l5.5-3.17,209.83-121.15M523.33,173.57l-211.33,122.02-6,3.46v250.95l211.33-122.01,6-3.47v-250.95h0Z"/></svg>