<?xml version="1.0" encoding="UTF-8"?><svg id="Layer_1" xmlns="http://www.w3.org/2000/svg" viewBox="0 0 600 600"><defs><style>.cls-1{fill:#1d1d1d;}</style></defs><path class="cls-1" d="M541.97,545.86c-.45-1.91-.03-4.71-1.72-5.92.01.47,1.42,4.93,1.72,5.92Z"/><path class="cls-1" d="M539.85,522.21c-4.53-18.15-2.97,13.65,1.44,16.93,1.44,2.23-2.13-9.03-1.79-8.79-.32-2.4,1.8,4.1,2.22,4.07.16-3.75-2.13-8.16-1.86-12.21Z"/><path class="cls-1" d="M536.29,514.77c.14.32,1.41,1.47,1.29.93-.35-.77-2.03-4.16-1.29-.93Z"/><path class="cls-1" d="M534.97,509.77c-.24-1.91-.09-2.18.93-.43-.36-.88-2.47-5.13-2.63-5.42.35,1.49,1.26,4.61,1.71,5.92v-.06Z"/><path class="cls-1" d="M530.92,489.37c-.15-.6-.37-1.75-.6-2.3-.13.55.33,1.8.6,2.3Z"/><path class="cls-1" d="M528.73,479.1c.94,5.9,5,14.12,5.19,20.15.52-6.4-2.37-14.88-5.19-20.15Z"/><path class="cls-1" d="M530.93,489.3c.18.69.43,1.99.61,2.66,0-.65-.31-2.09-.61-2.66Z"/><path class="cls-1" d="M532.88,499.67c.15.54.57,1.95.74,2.44.97-.2-.43-1.89-.74-2.44Z"/><path class="cls-1" d="M397.8,56.17c-.32.26-2.32,2.05-2.03,1.95,1.02-.84,5.7-3.26,2.03-1.95Z"/><path class="cls-1" d="M395.38,61.19c2.65-2.72-2.21.09-2.71.8.53.15,2.07-.4,2.71-.8Z"/><path d="M525.34,445.5c.11.35.41,1.4.59,1.64-.18-.4-.49-1.23-.6-1.65v.02Z"/><path d="M519.07,424.47c.65,6.73,3.23,13.87,4.19,21.08.52,2.66.74,5.32,1.38,5.61,1.02-12.49-1.45-29.65-8.68-41.44-.83,1.83,5.7,15.17,3.1,14.76Z"/><path d="M517.7,408.09c-.95,1.11-.23,1.54.02-.02l-.02.02Z"/><path d="M511.69,391.62c.8,2.08,3.12,14.13,3.77,9.97-.05-1.93-7.06-23.98-2.16-15.69.24.53.75,4.45.79,3.12-4.13-28.43-8.89-20.39-2.41,2.61Z"/><path d="M514.83,406.93c-.25-1.14-.8-3.8-.86-4.68-.21,1.17.36,3.49.86,4.68Z"/><path d="M514.02,402.26c.01-.07.02-.15.04-.22-.02.05-.03.12-.04.22Z"/><path d="M509.33,369.24c-.07-.72-.34-1.98-.57-2.7-.02.6.38,2.01.57,2.7Z"/><path d="M506.96,368.37c.2.96.65,2.57,1,3.48.27-.74-1.37-10-1-3.48Z"/><path d="M467.39,156.05c-.57.6.71,2.68.8,3.07-.28-.69-.47-2.35-.8-3.07Z"/><path d="M461.38,130.91s.05-.19.09-.22c-.26-.9-.23-.59-.09.22Z"/><path d="M469.25,184.74c-.08-.6-.33-2.17-.44-2.69.1.6.35,2.16.44,2.74v-.05Z"/><path d="M474.49,190.96c.09,2.24.18,4.95.57,7.25.36-2.09-.25-5.05-.57-7.25Z"/><path d="M486.04,249.36c-.06-.76-.51-2.79-.88-3.45-.59.72-.01,2.92.88,3.45Z"/><path d="M463.56,139c-1.88-6.68,2.68,10.74,1.73,7.05-.52-2.08-1.22-5.11-1.73-7.05Z"/><path d="M452.24,89.04c.18.64.63,2.05.99,2.6-.19-.61-.78-2.08-1-2.66v.06Z"/><path d="M335.14,90.46c-1.09.57-5.26,3.06-6.14,3.64,2.11-.81,4.32-2.17,6.14-3.64Z"/><path d="M88.75,231.96c0,.9-.02,3.28.13,4.17.17-.64-.13-3.23-.13-4.17Z"/><path d="M297.55,111.42c-.85.47-2.41,1.16-3.24,1.75.74.44,2.87-1.52,3.24-1.75Z"/><path d="M87.48,270.6l.53.03c-.17-.33-.34-.48-.53-.03Z"/><path d="M87.15,375.53c0-.44.03-1.95.03-2.28-.09.46-.07,1.75-.03,2.28Z"/><path d="M192.76,546.26c80-.85,339.26,1.12,349.6-.62-3.57-18.67-13.91-67.68-16.43-81.52,3.64,14.56-47.07-228.84-62.7-308.58,15.51,63.03,29.73,159.21,43.19,200.25-17.23-80.75-33.71-174.2-51.39-241.16,9.45,25.63-14.46-88.8-16.53-79.44-19.07,2.89-33.5,24.3-52.35,27.87,1.61-2.83,12.97-8.74,7.47-6.42-16.02,9.17-31.4,20.22-47.16,29.26-72.84,37.94-170.62,91.62-226.17,122.93-43.36,11.41-29.69,42.95-32.59,76.82-1.97,48.68.39,98.12.09,147.37-1.36,32.31-.49,77.8,1.85,112.64,3.27,4.53,38.73,1.01,32.7.82,22.19,1.03,47.76.9,70.41-.23ZM462.22,148.86c-1.11.17-2.73-11.93-3.22-12.91,1.12,4.14,2.93,8.32,3.22,12.91ZM453.85,98.57c-.57-.59-1.32-2.72-1.46-.25-.09.92,0,4.8-.71,1.69-4.09-14.82-2.04-17.89,2.17-1.44ZM449.28,84.04c.09,4.69-1.58-3.8-2.02-6.3-.17-1.04,1.75,4.97,2.02,6.3ZM439.21,34.93c1.17.42,3.82,9.58.71,6.21.03-2.01-2.99-5.6-.71-6.21ZM415.29,48.14c-1.65,2.15-6.16,4.28-8.67,5.66,2.73-1.76,5.71-4.11,8.67-5.66ZM325.8,97.75c1.96-1.23,4.18-2.3,6.2-3.41,5-2.88-5.26,3.53-6.2,3.41ZM285.08,120.13c1.13-.73,2.8-1.66,4.06-2.2-.75.42-3.27,1.8-4.11,2.24l.05-.04ZM247.2,140.79c40.86-25.07,36.66-18.4-.06.04l.06-.04ZM166.96,184.69l-.68.37c.16-.17.42-.37.68-.37ZM154.66,191.28c1.07-.69,2.84-1.57,3.99-2.08-.33.15-4.15,2.53-3.99,2.08ZM152.86,192.39l-.45.25c.16-.14.23-.35.45-.25ZM89.28,299.82c.53,2.27.18,6.62.09,8.41-.39-2.35-.52-5.46-.09-8.41ZM87.41,323.36c2.9-.58,1.78,23.75,2.15,31.8-.12-9.39-1.97-20.71-2.15-31.8ZM89.04,363.78c.16-.06.3-.17.41-.3.2.46-.23,1.91-.41.3ZM89.45,392.27c0,1.1.04,4.99,0,5.67-.08-1.69-.09-3.89,0-5.67ZM88.85,458.11c.24-6.8-2.51-19.34-1.05-23.15,1.34,5.89,2.98,20.39,1.05,23.15ZM89,481.69c.13-10.34.66-8.98.47,1.39-.01,1.76-.46-.83-.47-1.39Z"/><path class="cls-1" d="M88.3,516.37c-.04,1.4-1.06,5.05-.73,6.26,1.2-1.5.2-4.45.73-6.26Z"/><path class="cls-1" d="M88.2,521.9c-.04.97.15,2.66.32,3.7-.05-.73.2-3.61-.32-3.7Z"/><path class="cls-1" d="M195.78,546.65c2.12.15,4.59.2,6.81.02-1.83-.25-5.1-.27-6.81-.02Z"/><path class="cls-1" d="M203.21,546.14c-3.91-.48-3.81.06,0,0h0Z"/><path class="cls-1" d="M390.53,544.08c8.5-1.19,26.29,1.51,30.4-1.42-56.56-.61-122.06,1.03-179.86,1.08-11.29,1.07-26.28-2.81-36.96,1.62,5.42,2.68,36.63-4,30.2.45,51.81.35,102.67-1.65,156.23-1.73Z"/><path class="cls-1" d="M426.03,543.14c-8.5,2.03,9.44.07,4.79-.72-1.3,0-9.06-.25-4.79.72Z"/><path class="cls-1" d="M505.41,542.56c-24.09-1.07-48.03-.49-71.93.46,26.07,3.3,164.71-2.77,71.93-.46Z"/><path class="cls-1" d="M507.11,541.78c-5.08.37,1.74.32,3.32.28-.16-.09-2.7-.26-3.32-.28Z"/></svg>