<?xml version="1.0" encoding="UTF-8"?><svg id="Layer_1" xmlns="http://www.w3.org/2000/svg" viewBox="0 0 600 600"><path d="M118.14,131.02c6.95-15.09,15.1-60.38,24.08-56.07.43.21.93.27,1.4.21,96.95-12.23,180.78,40,275.32,123.52.11.1.22.18.35.26,50.03,31.74,94.48,50.94,143.22,61.88,2.11.47,2.82,3.1,1.24,4.58-8.78,8.27-12.17,32.37-24.01,46.52-28.94,35.35-67.62,17.03-96.71,54.3-26.26,31.25-58.33,92.88-88.1,72.14-66.54-42.79-99.88-15.15-93.87-8.17.91,1.06.99,2.59,0,3.58-9.94,9.99-17.9,52.7-28.32,66.93-.19.25-.42.47-.68.65-22.92,15.55-43.67-29.37-64.15-50.33-1.27-1.3-3.44-1.04-4.29.56-3.82,7.11-11.05,13.38-13.76,7.3-27.33-46.61-51.85-116.26-84.8-131.55-1.24-.58-1.85-2-1.4-3.3.03-.09.06-.18.09-.27,3.37-9.87,2.88-20.64-1.38-30.16-2.64-5.89-5.12-11.42-8.52-19-.28-.62-.32-1.34-.1-1.99,18.47-54.56,42.98-94.78,64.4-141.61Z"/></svg>