<?xml version="1.0" encoding="UTF-8"?><svg id="Layer_1" xmlns="http://www.w3.org/2000/svg" viewBox="0 0 600 600"><path d="M577.15,481.23c-9.39-20.37-27.76-33.73-48.24-37.59,33.19-15.53,47.65-54.96,32.29-88.28h0c-14.32-31.06-49.51-45.85-81.24-35.44l75.09-34.62c33.43-15.42,48.04-55.02,32.62-88.45h0c-15.42-33.43-55.02-48.04-88.45-32.62l-54.26,25.02c28.35-17.43,39.86-53.68,25.57-84.65h0c-15.42-33.43-55.02-48.04-88.45-32.62l-122.44,56.45c25.58-18.22,35.44-52.6,21.8-82.16h0C266.03,12.81,226.43-1.79,193,13.62l-123.11,56.77c-33.43,15.42-48.04,55.02-32.62,88.45h0c13.63,29.57,46.17,44.39,76.64,36.77l-54.46,25.11c-33.43,15.42-48.04,55.02-32.62,88.45h0c14.28,30.98,49.32,45.77,80.98,35.52l-57.13,26.34c-33.43,15.42-48.04,55.02-32.62,88.45h0c15.42,33.43,55.02,48.04,88.45,32.62l77.96-35.94c-28.52,17.37-40.12,53.74-25.8,84.8h0c15.42,33.43,55.02,48.04,88.45,32.62l182.35-84.08c-10.35,18.08-12.11,40.72-2.73,61.08h0c15.42,33.43,55.02,48.04,88.45,32.62l29.34-13.53c33.43-15.42,48.04-55.02,32.62-88.45h0Z"/></svg>