<?xml version="1.0" encoding="UTF-8"?><svg id="Layer_1" xmlns="http://www.w3.org/2000/svg" viewBox="0 0 600 600"><path d="M529.37,430.87c-2.22,16.82-5.55,33.93-14.33,48.45-13.1,21.67-36.57,34.8-60.01,44.38-87.29,35.68-194.42,32.05-268.8-25.91-30.52-23.78-54.32-55.37-72.74-89.4-44.2-81.67-58.05-179.32-38.3-270.06,4.68-21.5,13.16-45.02,33.1-54.31,13.02-6.06,231.14-32.95,245.32-30.61,86.09,14.16-35.34,173.18,38.73,217.49,48.83,29.22,124.85-28.2,136.01,34.48,7.27,40.81,6.42,84.57,1.02,125.5Z"/></svg>