<svg id="Layer_1" xmlns="http://www.w3.org/2000/svg" version="1.1" viewBox="0 0 600 600"><path d="M526.5,132.4l-204.4,354c-13.7,23.7-47.9,23.7-61.6,0L56.1,132.4c-13.7-23.7,3.4-53.4,30.8-53.4h408.7c27.4,0,44.5,29.6,30.8,53.4h0Z"/> <path class="st0" d="M524.2,131.1c.3,1.9,2.4-1.7,1.1-2.8-.3,1-.7,1.9-1.1,2.8Z"/> <path class="st0" d="M530.8,119.1c-1.3-6.8-3.5-3.1-1,1.8-.4,3.1-2.7,3.5-2.5,7,2.9-1,1.9-9.2,3.5-8.8Z"/> <path class="st0" d="M350.5,77.2l1.3.2c-.4,0-.8-.1-1.3-.2Z"/> <path class="st0" d="M223.1,76.5c1,0,1.4-.2,1.4-.3-.9,0-1.6.2-1.4.3Z"/> <path class="st0" d="M201.3,75c.5,0,.9,0,1.3,0-.5-.1-1-.2-1.3,0Z"/> <path class="st0" d="M350.5,77.2l-3.4-.4c-.2.4,1.7.3,3.4.4Z"/> <path class="st0" d="M520.8,94.7c.5.4.9.8,1.3,1.1-.4-.3-.7-1.2-1.3-1.1h0Z"/> <path class="st0" d="M406.6,76.2c.6,0,1.4,0,1.9-.5l-1.9.5h0Z"/> <path class="st0" d="M449.7,75.9c-1,0-1.3,1.1-1.7,1.6.4-.8,3-.3,1.7-1.6Z"/> <path class="st0" d="M517.3,84.9l1.1.6c-.3-.2-.8-.4-1.1-.6Z"/> <path class="st0" d="M375.8,75.9c0-.2-.2-.3-.4-.4,0,.1.1.3.4.4Z"/> <path class="st0" d="M496.9,173.1c0,0,.1,0,.2.1,0-.3,0-.4-.2-.1Z"/> <path class="st0" d="M526.7,132.6c-.3.4-.3.8.2,1.1,0,0-.2-1.1-.2-1.1Z"/> <path class="st0" d="M161.5,73.6c0,0,.1,0,.2,0,1.1-.1.4-.1-.2,0Z"/> <path class="st0" d="M160.2,322.1c-1.2-4.1,4.5,5.2,2.3-.8,0,.7-4.4-4-2.3.8Z"/> <path class="st0" d="M520.3,93.8c-.3-.4-.7-.8-1.1-1.2.5.6.8.9,1.1,1.2Z"/> <path class="st0" d="M162.6,321.3l-.2-.6c0,.2.1.4.2.6Z"/> <path class="st0" d="M68.2,78.8c.3,0,.7,0,1.2,0,0,0-.4-.1-1.2,0Z"/> <path class="st0" d="M138.1,75.9l-1.7-.2c.7,0,1.2.1,1.7.2Z"/> <path class="st0" d="M48.3,111.1c-.2,1-.3,1.3-.3,2.7.3-.8-.2-1.3.3-2.7Z"/> <path class="st0" d="M60.8,147c0-.6-.4-1.2-.8-1.7,0,0,.8,1.7.8,1.7Z"/> <path class="st0" d="M441.3,270.5c.7-.5,1.2-.8,1.7-1-1,0,1.5-4.8-1.7,1Z"/> <path class="st0" d="M521.3,94.3c-.3,0-.6-.1-1-.5.3.3,1,1.3,1,.5h0Z"/> <path class="st0" d="M57,113.2c-.2,1.6-.1,3.3,0,4.9,0-1.4,0-3.2,0-4.9Z"/> <path class="st0" d="M307,495.4l.9-.7c-.4.2-.7.5-.9.7Z"/> <path class="st0" d="M62.4,132.1c.3,1.2.4,3,1.6,3.7,0,0-1.6-3.7-1.6-3.7Z"/> <path class="st0" d="M443,269.5h0,0Z"/> <path class="st0" d="M460,234.7c-2.8,4.8,0,3,0,4.4-3,6-2.5,2.1-4.3,3.7-1.9,3.1-2.2,10-4.4,9.7-1.7,4.3-6.1,12.4-8.4,16.9,4.7-1.1-1.9,8.6,0,2.8l-1,2.5c-2.4,1.4,1.4-3.3.5-3.9-2.2,4.7-4.2,10.4-6.5,13.6-1.6,0,4.2-8.2.5-4.2l3.5-5c-4.2,3,2-3.1-2.1-.6-2.8,6.7-8.3,10.7-7.2,16.8-4.5,10.5-7.4,6-10,14.1-.3,2.3.8,3.9-3,8.6-1.8-4.5-1.6,4.7-5.6,8.9,3.5-8.9-.4-1.3-1.3,2.5-11.9,16.5-24.2,41.2-35.5,58-2.5,3.5.5.6-.1,2.6-1.2,2.2-2.2,2.5-1.7,1-3,7.1-9,19.9-14.1,26.2l.5-1.5c-3.5,5.2-1.5,7.3-5.3,11.8l.4-1.1c-14.3,25.7-26.5,41.9-39.2,66.4-1.5-1.7-1.6,1.3-2.4,2.3-1.2,1.9-4.1,1-5.4,3.3,9.3,0-27,7.8-15.4,4.3-16.1,2-26.1-11.8-34.1-26.7,2.4,5-3.1,1.9-1.3-.9-1.7-1.3,1.2,3-1.7,0-1.8-3.4,0-3,1.5-1.3-6.5-17.1-30.6-47.1-36.7-63.1-3.4-8.1-13.8-18.1-13.3-21-7.7-10.3-12.2-27.1-19.1-34.8l.4.4c-22.7-38.6-57-99.6-76.9-135.2-9.5-13.3-16.6-28.8-25.7-41.9.7.7,1.1.5,1.9,1.8-1.5-4.7-15.2-24.2-11.2-20.4-1.5-1.7-5-8.9-4.9-6.5-4.9-8.4-8.7-16-14-22.9,1.5-1.5-1.7-10.3-1.7-12.4,5.5-41.1,55.8-30.2,31.3-30.5.7,2.4,18.8-2.5,26.4-1,2.8.2-1.6.8-2.5,1.1,7.7-.2,30.3-.9,28.7-.3,1.9,0,4.4.3,4.2-.6-7.8.3,5.1-2.4,6.1-2.9-3.2,2.3,9.6.6,4.4,3.6,2-.6,6.2-1.6,3.1,0,5-.4,12.5-2.5,8.7-.3.5-.5,13.1-2.3,10.3-.7,10.6,0,20.8-3.8,29.1.7.7-.5,9,.2,3.2-1.2,4.6,0,8.8-1.1,12.8-.6l-3.5.6,8.7-.3-4.9-.6c4.7-.8-.5-1.9,5.7-1.5-1.3.2,4.7,0,7.1.9h0c7.1-1.9,12.7,2.7,21.7-.3-3.6,2.5,4.7-1.1,3.3,1.4,6.5.2-2.1-1.9,5.6-1.1-.6,0-.3.2-1.6.4,22.9,0,23.6,1.4,49.4,0-5.4-1.8,6.2.3,10.5-.1-1.3,2.9,14.7-.3,22.9-.2-3,1,16.3,2.1,15.8-.2,13.3,3.1,25.4-1.7,37.2.9-1.4,0-3.4.5-2.2.5l10.1-.5c-5.5-2-1.4-1.8,3.2-2.2-4.5.6,0,1.5,2,2-.3-.3.3-.6.2-.9,5.3,1.6.9-1.9,8.1-.8,13.2.6,8-.1,17.9,1.9h-.3s6.9.5,6.9.5c-3.4-2.6,10.6-1.2,15.5-2.7-6.7,1.7-1.1,1-1.6,2.2,1.8.3,4.4.7,3.7,1.1,15.5.4,32.2-4.1,52.7,2.1,1.6,1.8-2,.2-2.5.1,2.8,2.3,5.5,4.3,8.2,6.7-2,1.2,8.5,8,1.1,4.2,2.5,1.9,8.6,12.6,3.3,5.9,1.6,1.8,4.6,15,4.5,8,.2,1.5-.8.9-1.2-.2-1.8-4.8-.4-6.7.5-2.8,3.5-3.8-11-15.7-4.4-13-1.4-.7-8.1-6.5-2.9-3.9-.9-2.4-4.8-3.1-4.6-4.9-1.1-.6-2.3-1.2-3.5-1.7,1-.3.4-1.2,2,.1-3.3-3.8-11.7-3.6-12.4-5.2-6.4-1.3-6.6,4.7-13-1.1-2.6,2.3-15.9,2.2-18.9.5-1.7.9,4.5.7-.5,1.4-1.4-2.1-5.8.4-10-.6,1.3-1.1,5.4-.5,1.1-1.5-13.3.9-25.4,1.6-42.5-.5.8,1.3-17.4,2.4-7.9-.1-9,.2-13.2.6-25.1.4-.4,1,5.4,2.8-1.8,3.5-.3-.6-.5-1.5,1.4-1.7-2.5.5-4.6.4-.6-.7-3.1-.4-1.6.8-4.1.7-2.7-2-.5-.7,1.6-1.2-2.4-.5-36.7-1.9-30.3.4-.1,0-.3,0-.5,0h0c-19.9.2-37.7.1-56.4-.5,4.1-.7-1.4-.6,4.2-.5-5.3-.3-6.5-1-12.1.1,1.9-1-4-1.3-6.5-1l3.7.7c-10.1-2.5-22.5.3-34.1-1.3-2.8.9,5.9.7,3.3,1.7-12.1-2.5-14.4-2.1-25.1-.6,4.9,3.5-14.3,1.4-6.5-.2,1.5.2,5.8.2,3.4-.6-1.8.9-10.1-.4-8.3-.7-3.8.4-1.6.8,1.2,1-6.4-.7-9.9,0-16.5-.5,4.6.8-9.3,1.3-9.8,1.9-3.7-.7,1.3-1.7-5.2-1.1-4-.5-.9-1.3.7-1.7-6,.9-11.1-.6-14.6-.8l3.1-.4c-2,.6-7-.5-3.2,1.2-6.7-1.1-1.3,0-5.7,1.9-2.5-.5-7.5.5-8.3-.7,7.7.4-.9-1.3,5.7-1.5-.2.1-6.4.2-3.9-.3-7.5-.9-6.7,2.9-14.1.2,3.1,0,1.5,1.2-1.4,1.7-4.9-.6-5.4.4-7.9.3,5.7.3.6,1-3.9,1.1-.3-.5,3.1-.4,1.9-.6-11.2,1.3-23.2-5.3-31.3-.7l10.3-.7-6.6,1.4c3.1,0,6.6-.6,8.4-.4-3.1.8-2.8.5-1.3,1.3-12.8-.5-22.1-4.3-36.6-1.1,7.1,1.1-23.3-.2-27.6,26.8-.8-2.3-1.4-1.7-.4-4.6-2.8,5.9-3.9,19.7-.4,21.3-.6,13.7,15.5,32.2,18.3,40.3,2.8,6.2,4.1,2.5,7.2,9.6.9,4.1-2.7-3.2-1.8-.8-2.5.3,7.9,12.9,5.5,12.2,6.5,11.3,17.6,25.9,21.7,31.8,1.9,5.8,2,8.4-1.4,2.1,3,8.1,9.5,16.7,13.7,21.2,5.1,8.1,6.1,13.8,13.8,22.9-2.6-2.2-6.4-7.6-9-10.7,1.5,2.7,5.4,9.1,6.9,10.1,3.2-3.7,23,54.1,35,59.4,1.9,2.9,8.3,16.9,3.2,10.7,3.1,8.9.7,3.3,5.8,11.6l-1.6-5.1c5.7,7.2,2.1,7.8,7.8,15.1l-2.1-2.1c1,3.3,14.3,19.3,11.6,18.5,11.1,17.1,16.6,26.9,24.6,40.8l-1.8-1.7c20.6,31.2,33.7,63.8,56.8,94.7,29.8,20.5,58.6,3.1,75-33.5.5,4.7,1.3-7.4,2.7-9.8,6.6-1.8,15.3-25.5,16-22.9,9.4-13.1,12.8-28.3,17.8-35.2,1.7-2,4.3-10.8,3.9-6.2,1.4-3.5,11.9-24.1,10.9-19.3,5.2-6.9,4.6-12.3,9.8-16-9.8,16.1-1.9,4.5-2.9,10,1.4-3.2,4.3-14.4,7-15.2.7-3,12.2-15.1,7-14.5.6-.7-1.2,2.4-1.4,3-.6.5-2,3.5-3.2,5.5,4.1-14,20.2-26.5,21.8-40.5,2.9-4.4,2.2-1.4,1.2.8,4.9-9.4,5-12.2,9.1-16.9,8.2-6.3,9.6-24.2,20.3-35.8,12.9-24.4,40.8-69.7,54.5-96,.9,1.4,3.8-8.1,4.2-8.2,3.9-5.9,1.6,2.2,6.8-6.6,1.7-3.4,3.8-10.3,2.7-9.3-2.6,4.1-3.4,3.3-1.4-.2-1.5-6.1-8.4,3-9,7.7-4.2,3.7.7-2.3.7-3.2-3.1,4.6-5.6,8.1-6.5,13.6-1,.3,0-3-2.2.2-.6,2.8,2.7-1.5.9,2.7-2,.8-4.6,6.8-3.5,2.4-3.9,10.6-9.2,14.7-12.5,24.1-4.3.6-10.1,16.1-14.8,24.7,0-.4.1-1.2.5-1.6-4.8,2.5-6.7,23.5-8.8,12.3,1.2.4-2.8,7.4-1.1,6.6-4.5,4.2-3.2,3.2-5.6,9.3-3.3,3.8-2.2.2-4.5,5.2-1.8,1.9,0-2.7,0-2.7ZM397.7,349.5c.4-1,1-1.8,1.3-2.4-.3.5-.6,1.2-1.3,2.4ZM392.2,359c.3-.5,3.7-6.6,2.5-2.7,0-.7-1.4,1.5-2.5,2.7ZM410.6,342.8c-2.3,3.9-1,1.2-.1-.9.1.2.2.5.1.9Z"/> <path class="st0" d="M410.8,339.4c.1-.2.1-.4.3-.7-.9.5-1,2.2-.3.7h0Z"/> <path class="st0" d="M352,77.4h-.2c.2,0,.4,0,.5.1-.2,0-.2-.1-.3-.1Z"/> <path class="st0" d="M314.6,488.1c.3.5.4-.5.6-.6l-.6.6Z"/> <path class="st0" d="M412.4,81.3c.1,0,.3.2.8.3,0,0-.4-.2-.8-.3Z"/> <path class="st0" d="M438.5,81.5l3.7.4c-1.6-.2-2.8-.3-3.7-.4Z"/> <path class="st0" d="M458.6,82.1c.2-.2.4-.4.4-.5,0,0-.4.5-.4.5Z"/> <path class="st0" d="M139.5,83.4c-.3,0-.5,0-.8,0-1.8.2-.6.1.8,0Z"/> <path class="st0" d="M234.5,80.8c-1,.2-2,.4-3.1.5,1.7,0,3,.1,3.1-.5Z"/> <path class="st0" d="M57.1,112.6c0,.1,0,.4,0,.5v-.5Z"/> <path class="st0" d="M227,81.3c1.7.2,3.1.2,4.4,0-1.4,0-3-.2-4.4,0Z"/> <path class="st0" d="M527.3,109.3c0,.3,0,.8.3.9,0-.3-.2-.6-.3-.9Z"/> <path class="st0" d="M527.6,110.3l.2.9c0-.4,0-.8-.2-.9Z"/> <path class="st0" d="M528.3,113.2c-.1-.7-.2-1.4-.4-2,0,.7,0,1.6.4,2Z"/> <path class="st0" d="M515.5,88.8l-.5.2c.2,0,.3,0,.5-.2Z"/> <path class="st0" d="M509.2,85.1c1.7.5,3.7,3.6,5.9,3.9-1.9-.8-3.7-3.6-5.9-3.9Z"/> <path class="st0" d="M477.2,77.1l6.8.3c-1.2-.4-2.7-1,.3-1.1-8.5-1.3,1.7,1-7.1.8Z"/> <path class="st0" d="M456.3,76.5c3.6-.2,0-.6.1-.9-2.3.4-2.9.5-.1.9Z"/> <path class="st0" d="M304.7,76.5l.4-1c-2.8.2,0,.4-.4,1Z"/> <path class="st0" d="M275.7,81.8c1.1.3,3.2,1,4-.3,0,0-4,.3-4,.3Z"/> <polygon class="st0" points="258.6 74.5 259.8 74.4 255.1 74.7 258.6 74.5"/> <path class="st0" d="M56.7,141.8l.7-1.4c-1.1-1.5-2.6-1.2-.7,1.4Z"/> <path class="st0" d="M112.8,236.4c0,1.4,1.2,4.2,2.7,5.6-1.2-2.2-2-4.6-2.7-5.6Z"/> <path class="st0" d="M293.5,509.1c-.8.2-1.7.4-2.5.5,1.6-.1,3.2-.3,4.7-.6-.7,0-1.5.1-2.2.1Z"/></svg>
