<?xml version="1.0" encoding="UTF-8"?><svg id="Layer_1" xmlns="http://www.w3.org/2000/svg" viewBox="0 0 600 600"><defs><style>.cls-1{fill:#1d1d1d;}.cls-2{fill-rule:evenodd;}</style></defs><path class="cls-2" d="M526.46,132.43l-204.36,353.97c-13.69,23.71-47.92,23.71-61.61,0L56.12,132.43c-13.69-23.71,3.42-53.36,30.81-53.36h408.73c27.38,0,44.5,29.64,30.81,53.36Z"/><path class="cls-1" d="M524.15,131.1c-.09.83.84.83,1.64-1.01-.16-.62-.35-1.23-.57-1.84-.28.97-.71,1.88-1.06,2.84Z"/><path class="cls-1" d="M530.78,119.1c-.05-.63-.23-1.28-.39-1.87-.16-.59-.37-1.12-.63-1.52-.5-.81-1.08-1.07-1.7-.35.65,1.13.71,1.86.89,2.61.17.76.26,1.52.82,2.93-.15,1.01-.43,1.87-.77,2.39-.35.52-.68.72-.87.49.16.8-1.21,2.84-.89,4.14,1.98-2.01,3.1-5.48,2.68-9.08.39-.71.64.05.85.26Z"/><path class="cls-1" d="M350.45,77.22l1.32.16c-.36-.09-.81-.13-1.32-.16Z"/><path class="cls-1" d="M223.06,76.49c.97-.03,1.38-.16,1.42-.28-.9.09-1.64.17-1.42.28Z"/><path class="cls-1" d="M201.31,75.03c.47.03.86.06,1.28.09-.49-.12-.98-.19-1.28-.09Z"/><path class="cls-1" d="M350.45,77.22l-3.4-.42c-.24.43,1.74.32,3.4.42Z"/><path class="cls-1" d="M520.85,94.65c.47.45.86.83,1.28,1.14-.36-.4-.68-.81-1.06-1.19-.07.02-.14.04-.23.05Z"/><path class="cls-1" d="M406.61,76.15h1.03c.3-.15.59-.33.86-.54l-1.89.54Z"/><path class="cls-1" d="M449.7,75.94c-.97-.05-1.31,1.08-1.69,1.57.55-.46,1.27-.68,2.13-.77.02-.21-.11-.47-.44-.8Z"/><path class="cls-1" d="M517.27,84.93l1.1.63c-.29-.16-.76-.45-1.1-.63Z"/><path class="cls-1" d="M375.76,75.9c-.07-.17-.23-.31-.39-.4,0,.14.15.28.39.4Z"/><path class="cls-1" d="M496.91,173.06c.05.07.12.05.17.1.03-.27,0-.38-.17-.1Z"/><path class="cls-1" d="M526.71,132.58l-.29.63c.15.17.29.34.47.44l-.18-1.07Z"/><path class="cls-1" d="M161.5,73.59c.08,0,.1.01.18.02,1.05-.13.45-.11-.18-.02Z"/><path class="cls-1" d="M160.24,322.07c-1.2-4.09,4.49,5.19,2.34-.77-.09.72-4.35-4.03-2.34.77Z"/><path class="cls-1" d="M520.32,93.77c-.33-.41-.73-.78-1.08-1.19.46.57.81.91,1.08,1.19Z"/><path class="cls-1" d="M162.57,321.31h0s-.23-.61-.23-.61c.09.25.14.4.22.61Z"/><path class="cls-1" d="M68.21,78.82c.27.06.72.03,1.17-.03-.08-.08-.37-.13-1.17.03Z"/><path class="cls-1" d="M138.11,75.87l-1.69-.15c.67.1,1.21.14,1.69.15Z"/><path class="cls-1" d="M48.27,111.05c-.2.99-.33,1.33-.26,2.71.06-.13.11-.25.16-.41-.12-.5-.2-1.17.1-2.29Z"/><path class="cls-1" d="M60.83,147.02c-.02-.21-.1-.47-.14-.7-.2-.31-.43-.67-.64-.98l.78,1.69Z"/><path class="cls-1" d="M441.27,270.51c.68-.54,1.23-.8,1.73-.97-.98.09,1.49-4.75-1.73.97Z"/><path class="cls-1" d="M521.33,94.25c-.35.02-.64-.11-1.01-.48.25.29.5.57.75.83.19-.03.33-.11.26-.36Z"/><path class="cls-1" d="M57.01,113.15c-.18,1.63-.12,3.28-.03,4.92-.01-1.39-.1-3.17.03-4.92Z"/><path class="cls-1" d="M307.03,495.36l.93-.71c-.4.21-.74.45-.93.71Z"/><path class="cls-1" d="M62.44,132.07c.18,1.11.54,2.18.98,3.25.2.17.4.37.59.45l-1.57-3.69Z"/><path class="cls-1" d="M443.01,269.54s-.02,0-.02,0c0,0,0,0,.02,0Z"/><path class="cls-1" d="M460.02,234.74c-2.82,4.83-.06,3,.08,4.45-2.97,5.99-2.49,2.13-4.28,3.72-1.74,3.8-2.17,7.25-3.77,9.91-.33.08-.71.56-.62-.21-1.18,4.4-6.49,11.35-7.78,16.53-.3.27-.51.37-.65.4,1.06-.35,1.77-.08,2.15.33-1.23,2.18-1.52,4.49-2.82,4.83.79-1.32.52-1.62.62-2.39l-.95,2.48c-2.38,1.35,1.38-3.34.49-3.86-2.17,4.66-4.16,10.4-6.46,13.6-1.59.03,4.19-8.17.53-4.24l3.48-5c-4.18,2.95,1.97-3.12-2.14-.57-4.33,6.72-3.87,8.09-8.2,14.79-.24,1.93,1.26.05,1.02,1.98-4.49,10.49-7.42,6.01-10.01,14.13-.29,2.32.78,3.9-2.98,8.58l-.32-2.52c-4,6.62-.3,4.93-5.24,11.43.2-1.55,2.6-5.52,1.86-4.6-3.67,3.94-1.1,3.65-3.12,7.14l-1.6.04c-3.93,7.24-7.62,15.59-11.96,23.61-.1-.64.31-2.21-1.11-.57-5.16,10.3-12.42,21.18-18.67,30.39l-1.1,4.26c-.5.85-1.37,1.32-1.04.28-2.55,3.52.53.57-.11,2.6-1.16,2.17-2.21,2.48-1.73.95-2.95,7.11-9.01,19.9-14.12,26.23l.48-1.53c-3.54,5.18-1.45,7.32-5.3,11.8l.38-1.07c-7.23,11.51-13.81,25.05-20.53,33.15.48,2.55-7.38,11.27-5.77,13.21-4.89,6.13-4.15,4-10.29,13.07-.39.62-.64,1.21-.82,1.79-.16.51-.25,1.02-.35,1.57-.08.56-.22,1.11-.44,1.71-.21.6-.49,1.26-.97,1.91l-1-.72c-.28.69-.58,1.37-.93,2.03l-.52,1.01-.58.97c-.46.08-.9.16-1.34.23l-1.35.13c-.67.71-1.44,1.3-2.18,1.95.99-.59,2.37-.96,2.43-.59-1.71,1.65-4.38,2.94-6.62,3.47-1.1.32-2.14.37-2.85.43-.74,0-1.21-.09-1.28-.23-.82.36-1.69.58-2.54.88-.87.21-1.74.49-2.64.63-1.78.39-3.61.53-5.46.61.14-.22.67-.37,1.34-.5.67-.1,1.48-.24,2.18-.43-1.42.39-2.22.39-2.67.34-.45-.05-.55-.23-.64-.41-.09-.18-.16-.36-.53-.45-.38-.1-1.05-.07-2.38,0,.65.38-.49.67-.66.89-1.24-.63-3.31-1.24-5.49-2.18-2.19-.9-4.5-2.06-6.4-3.21l1.16-.23c-1.6-1.11-3.13-2.38-4.6-3.77-1.47-1.41-2.81-3.02-4.05-4.76l-.89-1.34c-.31-.48-.66-1.07-.99-1.6-.66-1.09-1.33-2.18-2-3.28-1.33-2.2-2.66-4.43-3.96-6.69,1.52,3.43-.18,3.43-1.83.85l.52-1.71c-1.68-1.3,1.17,3.01-1.71,0-1.81-3.44-.02-3.01,1.46-1.28l-2.76-3.87c.2-.44.93.42,1.5.42-1.67-1.28-2.95-7.72-5.56-9.44l.2-.42c-5.19-9.02-7.94-12.88-12.24-20.19-1.06.42-2.5-2.58-4.55-4.31-2.8-5.57-5.5-12-9.33-18.46-3.12-4.29-1.6-.86-3.36-2.58.69-.85-3.14-7.29-.56-4.29-4.65-7.72-5.93-9.86-12.35-19.32.25,1.28.79,2.58.13,2.13-1.18-1.71-1.98-4.29-1.41-4.28l.36.42c-7.72-10.31-12.17-27.06-19.11-34.81l.38.44-6.24-8.59c-2.28-4.3,2.12,2.14.88-1.29-7.18-9.01-8.78-15.71-14.46-23.27-1.01-7.8-13.07-22.21-16.3-31.66l-.33.85c-1.87-1.84-1.18-2.86-1.97-4.56-.35.51.82,2.7-.3,1.53-11.47-18.16-21.25-38.88-31.69-58.26-3.86-7.06-5.47-2.11-9.07-11.75l2.58,1.83c-9.49-13.27-16.56-28.79-25.67-41.88.74.67,1.09.49,1.87,1.84-.85-3.39-6.17-10.78-6.88-10.43-1.16-2.19.33-.85-.09-2.37-1.19-3.2-5.29-6.71-5.36-8.74-.02-.34.74.66,1.12,1.16-1.5-1.67-5.01-8.92-4.92-6.54-2.53-5.43-6.13-9.64-7.95-14.09-1.3-1.02-2.48-3.34-3.51-5.32-.92-1.8-1.56-3.43-2.56-3.5.93-.19.36-2.41-.22-5.02-.62-2.61-1.1-5.72-1.48-7.39.49,1.09.71-2.81,1.4-1.48.22-3.59.95-6.9-.13-6.55,2.03-2.99,3.05-6.16,4.56-8.94,1.44-2.75,3.27-5.01,5.62-5.23,3.75-3.95,8.55-6.71,13.67-8.05.65-.14,1.29-.32,1.94-.44.66-.11,1.31-.21,1.96-.32.66-.06,1.32-.12,1.98-.18.67-.06,1.45-.08,2.17-.12,2.93-.12,5.82-.24,8.7-.36-.21.9-3.39.95-6.45,1-1.53.03-3.04.06-4.13.2-.96.18-1.53.45-1.4.92.6-.06,1.1-.15,1.76-.2.65-.06,1.28-.11,1.9-.16,1.24-.12,2.42-.24,3.57-.35,2.29-.25,4.44-.48,6.59-.71,4.29-.43,8.57-.7,13.98-.49,2.8.25-1.59.78-2.54,1.09,10.9-.74,21.08.16,30.78-.82-.03.17-1.07.35-2.06.49,1.91-.06,4.45.27,4.23-.55l-1.86.22c-3.05-1.19,7.59-2.49,7.94-3.12-3.25,2.35,9.58.59,4.43,3.56,1.26-.16,2.84-.54,2.55-1.09,1.87.16,2.46.48.57,1.1,6.85-.45,4.42-1.32,10.62-1.3-.02.4-1.27.55-1.92,1.02,3.14-.77,6.3-1.55,11.54-1.21-.32.24.29.55-1.27.54,9.01-.12,15.35-2.06,25.23-1.31-2.91,1.72,3.36.57,3.88,2.06l5.31-.45-2.13-.72c4.65.03,8.77-1.06,12.77-.57l-3.46.62,8.72-.28-4.94-.57c4.71-.77-.5-1.89,5.69-1.47-1.26.15,4.66.02,7.08.9h-.02c2.3-.47,4.67-.97,8.11-.6.89.48-.72,1.65-.14,1.97,2.27-1.25,10.9-.35,13.77-1.68-.96.31-1.01,1.1-.69,1.26l1.91-1.01c2.16.32,2.47.48,2.12,1.11,6.48.19-2.06-1.89,5.64-1.08-.6.08-.32.23-1.57.39,7.73.43,14.93-.64,22.04-.14,2.1,1.5-6.21.37-3.81,1.64,10.24-.27,21.21-1.8,31.12-1.45l-1.85-.17c1.37-2.12,7.38,1.05,12.39.05-1.23.16-1.61,1.18-1.28.94,6.79.34,13.88-.52,24.16-1.19l-1.27.55c4,.49,10.53.28,14.85.53,1.28-.54,3.75-.46,2.25-1.25,13.32,3.1,25.41-1.66,37.23.92-1.41,0-3.37.48-2.24.48l10.07-.5c-.8-.92-1.32-.56-3.43-1.28,1.27-.55,4.12-.97,6.61-.97-4.53.61.04,1.48,1.99,2-.33-.28.34-.6.18-.88,5.26,1.64.88-1.86,8.06-.75l-.38.49c2.69-.25,5.16-.89,8.06-.75,1.2,1.07-2.86.5-3.04,1.38,4.07-.06,8.03-2.03,11.72-.96-1.73.3-4.22.3-5.94.6,4.01,1.25,4.48.94,7.46,1.14l-.29-.03,6.89.57-1.75-.34c5.09-2.79,10.37-.51,17.23-2.34-6.67,1.73-1.1,1-1.61,2.21,1.75.34,4.42.71,3.66,1.05,3.24-.98,5.41.77,9.99-.66.21.39,3.47.04,2.74,1.02,4.22-.31-1-.68-.64-1.17,3.25-.67,7.07-.26,11.24.08,2.09.17,4.26.33,6.5.32,1.11,0,2.27-.05,3.38-.13,1.05-.05,2.13-.21,3.23-.29,3.77.03,6.08.22,8.36.46,2.26.32,4.54.74,7.88,2.5.89.95.24.95-.59.74-.42-.11-.89-.27-1.25-.4-.37-.12-.64-.21-.64-.21.77.61,1.49,1.19,2.18,1.74.66.59,1.35,1.08,1.99,1.62.64.54,1.32,1.03,1.96,1.59.33.27.67.54,1.02.82.33.29.68.59,1.02.89-.76-.32-.43.44-.05,1.55.94,1.09,1.54,1.24,2.09,1.59.57.33,1.18.83,1.94,2.65-.74-.34-1.72-.73-2.89-1.56,2.21,2.49,4.43,5.17,5.86,8.5-.18.56-.59.11-1.05-.57-.52-.66-1.04-1.59-1.52-2.05.92,1.71,1.87,4.04,2.58,6.14.68,2.1,1.21,3.95,1.78,4.54.08-.87.07-1.75.11-2.64.21,1.48-.81.86-1.17-.15-1.38-3.16-.78-4.84-.46-5.19.17.4.35.79.5,1.2l.43,1.22c.84-1.56-.04-4.2-1.61-6.76-1.57-2.58-3.84-4.97-5.43-7,.89.2,1.79.45,2.66.76-1.43-1.26-3-2.34-4.54-3.32-.51-1.07-.44-2.38,1.62-.61-.5-.88-1.01-1.38-1.4-1.79-.4-.4-.76-.63-1.12-.83-.71-.41-1.3-.81-2.4-2.17-.22-.34-.04-.3.28-.15-.56-.33-1.14-.63-1.74-.9-.59-.27-1.16-.58-1.77-.8.42.03.43-.3.57-.47.15-.17.45-.19,1.4.58-2.74-2.33-5.6-3.2-7.83-3.71-2.27-.47-3.98-.63-5.16-1.49h.6c-2.45-.32-3.74-.27-4.41-.17-.67.1-.72.27-.7.48.05.43.33.93-3.14,1.57l-4.74-3.01-.92,1.22c-.97-.04-2.89-.14-2.53-.62-3.61.84.62.53-1.48,1.32-4.67-1.11-12.87.52-13.92-1.43-1.67.93,4.46.72-.52,1.36-1.42-2.09-5.76.36-10.02-.6,1.31-1.08,5.35-.51,1.08-1.47-2.57,1.83-8.3-.4-11.9-.05-.17,1.45-7.82.61-13.85,1.09.38-.49-11.35-.8-16.97-1.32l.17-.24c-1.09,1.47-6.88,1.19-11.09,1.5.17-.88.92-1.23,3.21-1.62h-3.96c-.94.48-2.17.73-4.74.89l1-1.1c-5.28.06-10.62,1.29-17.41.56-.38,1.02,5.4,2.85-1.78,3.54-.27-.55-.53-1.5,1.35-1.73-.61.07-2.19.46-3.43.22l2.87-.93c-3.09-.41-1.62.78-4.09.69.05-.79-1.83-.56-1.47-1.19.63-.08,2.16.33,3.1.02-2.79-.14-6.16-.61-7.27-1.21.24.45,0,1.06-2.04,1.17-5.27.06-1.81-.95-4.88-1.36-1.28.55-4.64-.02-4.73,1.16-1.54,0-1.83-.56-2.43-.88-2.73.52-12.75.15-9.67,1.41l.7.08c-.13.02-.29.03-.45.05h.02-.02c-8.95,1.17-18.59-.67-27.47-.16v-.39c-5.29.45-11.78.27-15.57,1.12-1.57,0-3.7-.72-3.03-1.19-4.05.3-4.51.74-10.36.09,4.07-.69-1.41-.61,4.17-.5-5.26-.34-6.46-.97-12.11.11,1.92-1.01-3.96-1.27-6.47-.97l3.69.72c-2.81.15-5.27.06-7.77-.03l1.35-1.33c-10.77-1.62-19.43,2.75-27.63.04-2.85.93,5.85.66,3.3,1.74-4.96-.18-10.12-2.09-11.67-2.09-6.79-.74-6.33,1.94-13.44,1.44.91.47,1.77,1.74-3.54,2.19-4.96-.18-6.1-1.99-2.96-2.37,1.19-.04,1.76.11,1.71.27,1.6-.17,3.7-.38,1.74-.89l-.64.47c-2.46-.48-9.28-.43-7.68-1.21-3.75.45-1.6.78,1.17,1.03-6.36-.69-9.94-.02-16.48-.48,1.04.26,2,.82.96.81-9.6-.59-4.23.9-10.73,1.11-3.7-.72,1.32-1.73-5.22-1.12-4-.49-.85-1.26.74-1.65-5.97.92-11.15-.6-14.56-.77l3.14-.38c-1.88.23-3.42.22-4.99.22l1.79.95c-1.85-.17-3.41-.17-3.37-.56-1.9.62,1.46,1.58-2.32,2.43-2.46-.48-7.49.52-8.34-.74,7.74.43-.85-1.27,5.69-1.47-1.26.15-2.8.14-4.66-.02-.28-.14.26-.26.77-.33-7.4-1.13-3.4,1.42-11.08,1.4.97-.71-1.78-1.35-3.03-1.2,3.09.01,1.48,1.18-1.36,1.73-4.92-.55-5.35.41-7.92.35l2.94.26c-1,.71-3.46.62-6.89.84-.29-.55,3.11-.38,1.89-.62-3.81,1.25-8.61-1.29-13.92-.45-2.46-.48-.24-1.33-2.4-1.66-5.95.92-6.44-.97-12.7-.21,1.8.95,2.12.72-2.29,1.65l10.28-.67-6.6,1.39c3.1.01,6.55-.6,8.41-.44-3.14.78-2.82.54-1.34,1.33-4.25-1.43-8.42.83-13.33-.13l.15-2.36c-3.69-.53-6.97-.22-10.52.14-.89.09-1.79.18-2.73.27-.96.08-1.94.16-2.97.24-1.1.09-2.23.16-3.42.31-1.19.09-2.42.3-3.74.45,1.14-.04,2.27-.16,3.4-.11-.65.52-2.21.79-4.01,1.14-1.8.37-3.85.86-5.34,1.67.01-.86-2.08-.37-3.63-.13.2.21-1.57,1.06-3.29,2.27-1.73,1.19-3.35,2.76-3.21,3.67-.69.37-1.41.72-2.1,1.12l-2.05,1.26c-1.55,1.48-2.56,2.85-3.27,4.12-.34.64-.63,1.25-.88,1.83-.23.6-.41,1.18-.6,1.75-.67,2.33-1.24,4.53-2.62,8.18-.05-1.26-.44-1.09-.74-1.26-.14-.08-.24-.25-.22-.73.04-.48.13-1.29.59-2.6-.61,1.23-1.05,2.47-1.38,3.38-.26.93-.36,1.56-.1,1.66-.25.34-.43.99-.56,1.81-.07.41-.13.85-.19,1.32-.03.47-.06.97-.1,1.47-.14,2-.09,4.09-.5,5.31.14.58.43.96.69,1.56.26.6.42,1.43.53,2.9-.13.34-.39.02-.39.02.2-.01.4,1.14.74,1.93.32.8.64,1.23.88-.07-.38,2.05-.08,4.49.6,7.01.68,2.52,2,5.08,3.37,7.39,2.69,4.48,5.35,8.83,6.1,12.24,2.94,4.56,6.42,10.09,8.93,14.32-.36-.15-.35.18-.74-.66,2.76,6.25,4.05,2.48,7.2,9.58.87,4.06-2.65-3.21-1.84-.83-1.71,2.23,4.97,7.9,6.25,13.16l-.76-1.01c1.22,3.88,5.7,7.9,8.78,13.62,0,0-.36-.16-.36.16,3.37,3.18,7.95,10.24,11.39,15.46-1.85-1.17-1.88-2.19-2.19-.64,1.53,2.35,1.03-1.54,4.07,3.15.43,1.85,2.02,5.59,1.33,6.6l-2.69-4.53c.11,3.05,3.45,5.88,4.63,8.41h-.72c4.21,6.9,5.63,6.21,9.87,13.78l-.04-1.01c3.72,3.33,1.23,3.88,4.6,7.4l-.65,2.03c1.9,2.52,6.8,8.73,9.87,13.45-2.6-2.17-6.41-7.56-9.04-10.73,1.54,2.69,5.37,9.07,6.86,10.08-.76-1.01-1.88-2.18-2.29-3.37,2.98,2.68,6.01,6.71,9.08,12.08-3.2.58,7.39,14.34,7.57,19.42,6.45,8.91,10.43,19.03,16.96,29.98-.2-5.1,1.92,3.19,3.65,1.29,1.62,2.49,2.15,3.49,2.15,3.8l3.23,8.52c.45,2.2-1.88-2.17-2.22-1.66,3.09,5.72.47,2.88,2.05,6.93.32-1.2,2.21,1.33,3.78,4.71l-1.63-5.08c5.67,7.21,2.15,7.82,7.84,15.11l-2.11-2.12c2.74,3.84,8.65,15.02,12.65,18.02.17.86.14,2.15-1.05.44,5.36,9.87,14.31,20.6,17.62,28.76l-.94-.44c1.2,1.73,2.8,2.6,3.59,5.17-.28,0-.94-.43-.48.43.73.86,3.69,4.29,4.78,6.87l-1.77-1.72c4.8,9.88,9.82,13.73,14.77,21.48-1.54.86,2.28,8.61,4.18,12.47h-.29c6.19,11.15,12.09,18.02,18.6,27.9,1,3.65,3.94,9.13,7.23,15.03.83,1.47,1.67,2.98,2.52,4.49l1.27,2.26c.5.84,1,1.67,1.5,2.5,2.1,3.26,4.57,6.16,6.99,8.57-.67-.82-.37-1.01.31-.83.68.18,1.81.66,2.77,1.31.58.51,1.35,1.01,2.16,1.48.84.42,1.7.82,2.47,1.16,1.55.64,2.64,1.17,2.09,1.79-.34-.15-.66-.34-.98-.51.68,1.25,2.63,2.42,5.05,3.34,2.43.88,5.32,1.4,7.85,1.73.36-.67.71-1.35,1.04-2.02,3.08,1.08,6.92,1.35,10.81.75,3.9-.56,7.8-2.05,11.2-3.96,3.41-1.91,6.3-4.25,8.64-6.37,2.34-2.12,4.21-3.98,5.81-5.04.74-1.4,1.59-3.05,2.31-4.52.67-1.42,1.34-2.84,1.8-4.17l.91.7c4.13-6.57,6.19-9.86,10.75-18.3l-.28,2.1c2.77-4.65.59-7.55,3.02-11.9l2.21-.45c4.7-8.19,10.76-15.72,14.09-24.56.14.26.42.74-.28,2.1,2.26-3.83,9.58-14.31,6.77-14.07,1.36.66,5-8.36,6.97-13.1l.57,1.24c.92-4.44.65-4.75,3.31-10.15.84-1.16,1.4-.63.2.86,2.88-3.82.93-3.73,4.32-8.41l-.46,2.21c2.52-4.18,1.99-4.04,2.61-6.78,1.15-2.88,4.87-7.88,6.11-8-.2-.88.42-3.6,2.11-5.95.52-.15.21.88.04,1.39,4.74-6.69,4.94-11.16,8.7-15.47.38.08.72-.14,1.05-.49-3.26,5.6-5.93,10.09-5.75,9.63.89.51,3.67-3.93,2.81.39,1.43-4.03,3.57-11.09,6.54-15.27.21-.16.42-.32.65-.41l-.16.52c.68-.97,1.12-1.93,1.47-2.88.96-1.33,1.59-2.16,2.38-3.51,1.04-.1,3.4-4.97,4.74-7.21-1.08-.38.78-3.25-1.62-.94.28-.32-.13.49-.96,2.02-.17.36-.38.77-.46,1.02,0-.06,0-.13,0-.2-.84,1.49-1.94,3.44-3.18,5.66.54-2.07,1.2-4.18,3.18-6.37.04-1.52.14-3.17.25-4.06,3.15-2.31,7.32-7.85,8.64-8.2,3.44-7.22,9.03-16.47,9.71-21.87.9-2.1,1.83-1.95,2.54-2.52-.47,1.24-1.28,2.57-1.37,3.34,1.8-4.2,6.53-11.74,5.8-13.41,3.43-4.61-.43,3.46,3.29-3.46l-.14,1.14c9.76-12.2,9.29-23.63,20.47-36.94-.75.93-1.12,1.4-1.46,1.49,10.92-16.24,19.03-35.46,30.49-51.08,3.11-4.53,2.59-5.51,3.64-8.77l1.64-.42,1.65-5.64c3.17-7.53,9.58-10.67,13.04-20.51l-1.37.74c1.98-3.11,5.42-10.34,5.92-9.34.06-.4-.13-1.47.96-2.5l.6.22,3.59-8.38c3.9-5.85,1.62,2.2,6.85-6.6,1.69-3.42,3.82-10.3,2.74-9.28-.79,1.31-2.3,3.2-2.91,2.98l1.46-3.18c-1.3-1.48-1.61-4.75-7.01,2l-1.99,5.72-1.74,1.21,2.46-4.37c-2.16,2.04-2.41,3.97-2.97,5.98-.66.17-1.36.73-2.11,1.66l-1.38,5.95c-.99.25.06-2.99-2.25.2-.65,2.78,2.73-1.46.93,2.74-2.16,2.04-2.34.98-3.38,4.23-.65.17-.56-.6-.08-1.85-.99,2.86-3.73,6.94-3.64,8.77-2.39,2.05-4.79,8.84-6.17,7.7-.1,1.02-1.42,5.23-2.72,7.63.67-5.38-5.22,8.8-6.52,6.52-.2,4.15-5.94,11.98-8.3,18.17.05-.39.15-1.17.52-1.62-1.98,3.11-3.01,3.75-4.5,5.62,1.12,1.19-1.44,6.34-2.15,9.5-3.57,3.15-.22-3.29-2.19-2.79,1.21.44-2.83,7.43-1.14,6.63-2.54,2.52-1.88,2.35-3.9,3.24,1.39,1.5-1.32,2.95-1.71,6.03-3.33,3.84-2.23.2-4.46,5.25-1.83,1.96.01-2.61.01-2.61ZM397.68,349.5s-.02-.01-.02-.01c.54-.99,1-1.83,1.29-2.37-.27.5-.63,1.18-1.27,2.38ZM392.2,359.01c.71-1.13,1.54-2.57,2.42-4.1.53-.14.67.42.1,1.37.08-.65-1.41,1.48-2.52,2.73ZM410.56,342.81c-.73,1.58-1.21,1.98-1.53,2.07.39-.72.84-1.57,1.4-2.7-.01-.06,0-.18-.02-.25.1.25.18.52.15.88Z"/><path class="cls-1" d="M410.84,339.37c.1-.23.13-.37.29-.66-.26.26-.5.51-.74.77,0,.24,0,.49,0,.71.15-.28.31-.56.45-.82Z"/><path class="cls-1" d="M352,77.4l-.23-.03c.19.04.37.09.49.16-.15-.05-.15-.09-.25-.13Z"/><polygon class="cls-1" points="314.64 488.15 314.86 488.32 315.2 487.53 314.64 488.15"/><path class="cls-1" d="M412.43,81.26c.12.1.34.2.79.29-.03-.07-.38-.18-.79-.29Z"/><path class="cls-1" d="M438.54,81.51l3.69.4c-1.6-.23-2.76-.34-3.69-.4Z"/><path class="cls-1" d="M458.61,82.07c.25-.2.33-.35.39-.48-.02,0-.03,0-.04,0l-.35.49Z"/><path class="cls-1" d="M139.5,83.39c-.27,0-.54.02-.77.05-1.82.22-.58.13.77-.05Z"/><path class="cls-1" d="M234.46,80.77c-1.01.2-2,.4-3.05.53,1.69.09,3,.11,3.05-.53Z"/><path class="cls-1" d="M57.06,112.62s0,0-.02-.01c0,.19-.02.36-.03.55l.05-.54Z"/><path class="cls-1" d="M226.99,81.28c1.69.22,3.1.18,4.42.02-1.39-.08-3.02-.19-4.42-.02Z"/><path class="cls-1" d="M527.29,109.31c.03.29.08.58.1.86.07-.02.14.02.19.08-.07-.32-.2-.63-.29-.94Z"/><path class="cls-1" d="M527.58,110.25l.24.95c-.05-.45-.1-.83-.24-.95Z"/><path class="cls-1" d="M528.27,113.23c-.12-.68-.25-1.36-.44-2.03.1.71.1,1.58.44,2.03Z"/><path class="cls-1" d="M515.55,88.81l-.47.16c.17.02.33-.02.47-.16Z"/><path class="cls-1" d="M509.2,85.1c1.6.78,3.46,2.77,5.5,3.99l.38-.12c-.32-.05-.71-.32-1.15-.71-.45-.37-.97-.83-1.5-1.32-.54-.46-1.13-.9-1.68-1.26-.56-.34-1.11-.55-1.56-.57Z"/><path class="cls-1" d="M477.25,77.14l6.77.33c-1.18-.43-2.74-1.02.34-1.12-8.53-1.3,1.76.97-7.1.8Z"/><path class="cls-1" d="M456.27,76.51c3.64-.2-.04-.63.15-.88-2.31.4-2.86.5-.15.88Z"/><path class="cls-1" d="M304.67,76.51l.37-1.02c-2.8.15-.03.4-.37,1.02Z"/><polygon class="cls-1" points="275.69 81.79 278.42 82.43 279.72 81.49 275.69 81.79"/><polygon class="cls-1" points="258.57 74.51 259.8 74.36 255.12 74.73 258.57 74.51"/><path class="cls-1" d="M56.69,141.83l.67-1.36c-1.14-1.53-2.57-1.16-.67,1.36Z"/><path class="cls-1" d="M112.76,236.38c.05,1.35,1.25,4.23,2.74,5.57-1.16-2.18-1.97-4.56-2.74-5.57Z"/><path class="cls-1" d="M293.55,509.09c-.83.16-1.67.35-2.52.48,1.6-.12,3.18-.31,4.74-.6-.74.04-1.48.11-2.22.12Z"/></svg>