<?xml version="1.0" encoding="UTF-8"?><svg id="Layer_1" xmlns="http://www.w3.org/2000/svg" viewBox="0 0 600 600"><defs><style>.cls-1{opacity:.85;}.cls-2{fill:#1d1d1d;}</style></defs><g class="cls-1"><path class="cls-2" d="M544.11,269.92c-1.92-.07-3.85-.16-5.78-.24.97.34,1.93.87,2.91,1.71,1.26.55,1.92-.52,2.87-1.46Z"/><path class="cls-2" d="M532.98,269.43c-.35-.02-.7-.04-1.02-.05-.31.14-.61.28-.88.43.63-.15,1.27-.27,1.9-.38Z"/><path class="cls-2" d="M522.92,270.65c1.78.27,3.48.1,5.12-.2-1.45-.36-3.14-.37-5.12.2Z"/><path class="cls-2" d="M530.94,271.81c-.62-.71-.92-1.45.1-1.99.01,0,.02,0,.04-.01-1,.23-2,.46-3.03.65,1.09.28,2.06.75,2.89,1.36Z"/><path class="cls-2" d="M530.94,271.81c.6.68,1.55,1.33,1.87,1.72-.54-.63-1.17-1.21-1.87-1.72Z"/><path class="cls-2" d="M528.4,288.68c-1.02.53-.78-4.24-2.78-3.18-4.71,1.34-8.74,3.49-13.14,3.49-2.01,1.07-5.17-4.23-7.17-3.16-4.72,1.34-16.77,7.76-9.67,7.47,10.68-.71,17.64-2,27.22-2.88,7.79-1.92,15.27-4.2,23.25-5.93,2.23-.23,4.32.14,6.42.47-2.74-.74-5.55-1.48-8.66-2.18-4.1-1.32-9.04,4.81-15.46,5.89Z"/><path class="cls-2" d="M586.66,272.81c-1,.54-3.01,1.61-3.01,1.61-4.48-3.44-9.19-2.09-13.9-.75.68.79,1.38,1.59,2.09,2.38,2.69-.27,3.01-1.61.61-2.65,5.48,2.9,10.66,3.35,15.97,2.86-.33-1.3-.26-2.79-1.76-3.45Z"/><path class="cls-2" d="M591.54,275.86c-1.04.16-2.09.29-3.11.39.02.14.07.27.11.41,1.05-.24,2.09-.47,3.11-.69-.04-.04-.08-.08-.11-.11Z"/><path class="cls-2" d="M501.58,275.02c-8.44,2.32-59.44-5.21-49.56,3.1-2.4-3.39-6.14-2.84-9.89-2.89,3.46-1.03,6.03.46,9.02-1.28-7.71-.78-19.45.39-24.32-1.05-6.8-1.31-28.63-1.06-17.16,5.63,2.08,2.39,4.65-4.79,7.1-.29-2.45-4.5-5.02,2.68-7.1.29-3.67-5.14-9.17-2.38-14.38-6.31,8.88-1.92,13.53,5.16,21.44-.38-129.99-2.48-260.48-20-390.09-24.87-21.27,7.94-10.24,28.43-9.24,29.59,13.08,17.47,23.31,7.77,49.95,18.03-18.15-5.83,13.39-11.24,30.53.73,107.4,22.43,233.32,8.53,344.18-.29-9.77,1.06-45.17,6.95-17.57-4.6,6.7,4.25,12.5,2.99,20.32-.34,4.71,7.65,13.06-4.52,18.26-2.72,17.87,7.92,13.33-4.37,21.63-2.19-16.65,3.16,15,.29,23.04-3.92-4.62-.75-10.66.13-16.08-3.28,3.36,8.57-10.08-6.67,11.2,1.02,4.4-4.13,3.69,3.31,7.89,1.45-2.21-2.38-9.16-5.44-9.16-5.44Z"/><path class="cls-2" d="M447.13,274.9c.72-.16,1.61-.26,2.55-.38-3.42-.21-6.85-.43-10.29-.65,1.82,2.32,4.77,1.68,7.74,1.03Z"/></g></svg>