<?xml version="1.0" encoding="UTF-8"?><svg id="Layer_1" xmlns="http://www.w3.org/2000/svg" viewBox="0 0 600 600"><path d="M96.81,264.72c7.57-2.05,16.48-8.27,26.3-7.41,104.04-1.68,193.88,5.28,295.26,16.42,56.42,4.46,106.18,7.06,161.68,8.47-15.36.02-30.79-2.07-46.21.22-30.92,4.7-58.82,8.61-89.9,13.57-28.06,4.15-62.32,12.35-94.13,9.59-79.98-6.4-115.07-.95-95.9-.89-12.89.02-22.17,7.14-34.95,9.23-25.77,2.27-48.98-4.42-71.96-7.01-3.2,1.09-12.95,2.34-16.29,1.41-29.84-6.33-56.56-15.87-92.97-17.61,3.29-1.2,6.56-2.39,6.56-2.39-6.66-1.85-9.99-2.78-16.65-4.62,19.78-7.32,46.15-12.7,69.17-18.96Z"/></svg>