<?xml version="1.0" encoding="UTF-8"?><svg id="Layer_1" xmlns="http://www.w3.org/2000/svg" viewBox="0 0 600 600"><defs><style>.cls-1{fill:none;stroke:#000;stroke-miterlimit:10;stroke-width:9px;}</style></defs><line class="cls-1" x1="438.98" y1="69.29" x2="161.02" y2="69.29"/><polyline class="cls-1" points="144.37 98.13 158.23 98.13 441.77 98.13 455.63 98.13"/><polyline class="cls-1" points="127.72 126.97 141.58 126.97 458.42 126.97 472.28 126.97"/><polyline class="cls-1" points="111.07 155.81 124.93 155.81 475.07 155.81 488.93 155.81"/><polyline class="cls-1" points="94.42 184.65 108.28 184.65 491.72 184.65 505.58 184.65"/><polyline class="cls-1" points="77.78 213.48 91.63 213.48 508.37 213.48 522.22 213.48"/><polyline class="cls-1" points="61.13 242.32 74.98 242.32 525.02 242.32 538.87 242.32"/><polyline class="cls-1" points="44.48 271.16 58.33 271.16 541.67 271.16 555.52 271.16"/><polyline class="cls-1" points="27.83 300 41.68 300 558.32 300 572.17 300"/><polyline class="cls-1" points="44.48 328.84 58.33 328.84 541.67 328.84 555.52 328.84"/><polyline class="cls-1" points="61.13 357.68 74.98 357.68 525.02 357.68 538.87 357.68"/><polyline class="cls-1" points="77.78 386.52 91.63 386.52 508.37 386.52 522.22 386.52"/><polyline class="cls-1" points="94.42 415.35 108.28 415.35 491.72 415.35 505.58 415.35"/><polyline class="cls-1" points="111.07 444.19 124.93 444.19 475.07 444.19 488.93 444.19"/><polyline class="cls-1" points="127.72 473.03 141.58 473.03 458.42 473.03 472.28 473.03"/><polyline class="cls-1" points="144.37 501.87 158.23 501.87 441.77 501.87 455.63 501.87"/><line class="cls-1" x1="438.98" y1="530.71" x2="161.02" y2="530.71"/></svg>