<?xml version="1.0" encoding="UTF-8"?><svg id="Layer_1" xmlns="http://www.w3.org/2000/svg" viewBox="0 0 600 600"><path d="M28.77,113.13C111.16,17.93,213.07-25.15,248.57,132.29c7.92,37.13,16.43,74.97,34.53,108.59,11.1,20.48,30.42,43.33,55.88,36.59,15.01-3.76,28.93-15.39,38.78-27.52,7.84-10.73,24.45-34.22,39.67-30.43,4.83,1.14,8.47,5.4,10.11,9.86,1.67,4.23,2.26,9.13,2.52,13.23.5,9.44-.36,18.84-1.46,28.04-6.38,47.65-18.89,93.98-31.97,140.1-8.79,31.74-23.76,85.54-9.78,115.87,13.04,26.48,47.65,17.73,70.59,10.5,11.02-3.7,21.78-8.27,32.33-13.22,32.01-15.2,62.29-33.83,91.6-53.86,0,0,1.09,1.38,1.09,1.38-18.05,15.61-37.23,29.85-57.17,43.1-32.36,20.6-79.43,49.1-119.4,43.42-22.96-3.62-35.82-21.32-39.86-43.03-5.8-32.91,2.13-68.89,10.59-100.56,10.45-37,21.48-73.89,29.94-111.35,4.2-19.7,8.7-39.57,8.49-59.65-.22-3.6-.37-6.66-1.71-9.6-.38-.59-.19-.23.33-.11.08.03.18,0,.18.02.09-.02-.01-.02-.2,0-5.21,1.63-9.8,6.72-13.78,10.78-3.95,4.27-7.72,9-11.15,13.75-.72.91-2.1,2.51-2.89,3.4-20.85,23.29-53.61,40.75-82.77,20.9-20.83-14.62-32.03-38.37-41-61.31-8.44-22.6-14.23-45.95-18.98-69.5-4.24-22.89-9.3-46.29-18.81-67.58-31.26-71.46-89.15-57.28-141.95-17.78-18.93,14.12-36.46,30.33-52.21,47.93,0,0-1.35-1.13-1.35-1.13h0Z"/></svg>