<?xml version="1.0" encoding="UTF-8"?><svg id="Layer_1" xmlns="http://www.w3.org/2000/svg" viewBox="0 0 600 600"><defs><style>.cls-1{fill:none;stroke:#000;stroke-miterlimit:10;stroke-width:12px;}</style></defs><line class="cls-1" x1="527.21" y1="77.79" x2="72.79" y2="77.79"/><polyline class="cls-1" points="72.79 111.9 84.79 111.9 515.21 111.9 527.21 111.9"/><polyline class="cls-1" points="72.79 146.01 84.79 146.01 515.21 146.01 527.21 146.01"/><polyline class="cls-1" points="72.79 180.12 84.79 180.12 515.21 180.12 527.21 180.12"/><polyline class="cls-1" points="72.79 214.23 84.79 214.23 515.21 214.23 527.21 214.23"/><polyline class="cls-1" points="72.79 248.34 84.79 248.34 515.21 248.34 527.21 248.34"/><polyline class="cls-1" points="72.79 282.45 84.79 282.45 515.21 282.45 527.21 282.45"/><polyline class="cls-1" points="72.79 316.55 84.79 316.55 515.21 316.55 527.21 316.55"/><polyline class="cls-1" points="72.79 350.66 84.79 350.66 515.21 350.66 527.21 350.66"/><polyline class="cls-1" points="72.79 384.77 84.79 384.77 515.21 384.77 527.21 384.77"/><polyline class="cls-1" points="72.79 418.88 84.79 418.88 515.21 418.88 527.21 418.88"/><polyline class="cls-1" points="72.79 452.99 84.79 452.99 515.21 452.99 527.21 452.99"/><polyline class="cls-1" points="72.79 487.1 84.79 487.1 515.21 487.1 527.21 487.1"/><line class="cls-1" x1="527.21" y1="521.21" x2="72.79" y2="521.21"/></svg>